# xmcd
# Track frame offsets:
# 183
# 14075
# 27028
# 37333
# 48263
# 59373
# 71065
# 82963
# 91895
# 104135
#
# Disc length: 1580 seconds
# Revision: 0
# Processed by: cddbd v1.4PL0 Copyright (c) Steve Scherf et al.
# Submitted via: VisiTrax 2.9.5.180 - For more info visit www.synapsa.com
#
DISCID=87062a0a
DTITLE=George Jones - A good year for the roses
DYEAR=1993
DGENRE=
TTITLE0=A good ear for the roses
TTITLE1=Things have gone to pieces
TTITLE2=Walk through this world with me
TTITLE3=Tender years
TTITLE4=I'll share m world with ou
TTITLE5=Accidentally on purpose
TTITLE6=White lightning
TTITLE7=Love bug
TTITLE8=If my heart had windows
TTITLE9=Where grass won't grow
EXTD=
EXTT0=
EXTT1=
EXTT2=
EXTT3=
EXTT4=
EXTT5=
EXTT6=
EXTT7=
EXTT8=
EXTT9=
PLAYORDER=
